<?xml version="1.0" standalone="no"?>
<!DOCTYPE svg PUBLIC "-//W3C//DTD SVG 20010904//EN"
 "http://www.w3.org/TR/2001/REC-SVG-20010904/DTD/svg10.dtd">
<svg version="1.0" xmlns="http://www.w3.org/2000/svg"
 width="192.000000pt" height="192.000000pt" viewBox="0 0 192.000000 192.000000"
 preserveAspectRatio="xMidYMid meet">
<g transform="translate(0.000000,192.000000) scale(0.100000,-0.100000)"
fill="#000000" stroke="none">
<path d="M799 1333 c-5 -16 -63 -152 -128 -303 -64 -151 -114 -276 -109 -278
4 -2 8 -24 8 -48 0 -24 5 -44 10 -44 6 0 10 11 10 25 0 14 5 25 10 25 6 0 10
-11 10 -25 0 -14 6 -25 14 -25 9 0 12 8 8 25 -2 15 0 25 7 25 6 0 11 5 11 11
0 6 -14 9 -31 7 -17 -2 -32 2 -33 7 0 6 28 11 65 13 l66 3 23 57 c12 31 27 61
31 66 5 5 -10 31 -32 57 l-40 48 57 3 58 3 38 94 c21 52 38 101 38 108 0 7 4
13 8 13 4 0 6 -46 4 -102 -5 -157 4 -142 -76 -139 l-69 2 54 -61 c30 -34 62
-72 71 -83 l18 -22 0 25 c0 13 21 120 46 236 l47 212 -34 45 c-34 46 -35 46
-92 47 -54 0 -59 -2 -68 -27z m118 -19 c3 -7 10 -11 17 -7 6 3 8 2 3 -2 -4 -5
0 -16 8 -25 13 -14 14 -26 4 -68 -6 -29 -14 -54 -19 -57 -4 -3 -6 3 -4 12 3
10 -2 27 -10 38 -13 19 -15 19 -33 3 -10 -10 -25 -34 -32 -55 -7 -21 -24 -61
-37 -89 -22 -48 -26 -52 -64 -56 -22 -2 -40 1 -40 5 0 5 -6 4 -14 -2 -8 -7 -4
9 9 36 29 56 75 160 75 166 0 3 10 26 22 53 12 27 22 51 21 54 -1 3 19 6 43 7
31 1 47 -3 51 -13z m-184 -427 c5 -14 -12 -69 -30 -96 -2 -2 -25 -5 -51 -6
-48 -2 -49 -1 -42 24 3 14 19 55 35 89 l28 64 27 -29 c14 -15 29 -36 33 -46z
m157 30 c0 -4 -5 -18 -11 -29 -11 -21 -12 -21 -25 3 -18 33 -18 35 11 35 14 0
25 -4 25 -9z"/>
<path d="M983 1317 l35 -43 -52 -240 c-29 -131 -56 -249 -60 -261 l-7 -23 166
0 c172 0 199 -5 249 -49 18 -16 66 -23 66 -10 0 13 -61 52 -84 54 -12 2 -37
12 -56 23 -23 15 -38 18 -46 11 -7 -5 -64 -8 -135 -7 -102 2 -124 6 -125 18 0
8 2 20 5 25 3 6 7 19 8 30 4 55 27 155 33 145 4 -6 7 4 7 22 1 18 3 44 6 58 2
14 5 31 6 38 0 8 6 10 14 6 9 -5 9 -4 0 6 -9 10 -9 20 1 44 7 17 11 37 8 45
-2 8 0 11 5 8 15 -9 8 74 -8 87 -40 32 -21 33 312 28 96 -2 96 -2 94 -27 -6
-54 -39 -190 -48 -196 -5 -3 -8 -9 -8 -13 3 -18 0 -20 -9 -6 -6 10 -10 11 -10
3 0 -7 -7 -13 -16 -13 -8 0 -12 -4 -9 -10 3 -5 1 -10 -4 -10 -6 0 -11 -7 -11
-15 0 -8 -6 -15 -12 -15 -10 0 -9 -3 1 -9 11 -7 11 -9 0 -14 -8 -3 -4 -4 8 -4
12 1 19 6 17 12 -3 5 1 2 9 -7 8 -10 17 -15 20 -12 10 10 2 -23 -9 -37 -6 -8
-15 -21 -19 -29 -8 -13 -6 -13 7 -2 14 12 15 9 7 -25 -6 -21 -11 -45 -12 -53
-1 -8 -8 -19 -15 -23 -10 -7 -3 -18 27 -48 21 -21 35 -39 29 -39 -7 0 -6 -5 1
-14 7 -8 21 -31 32 -52 l20 -39 -5 45 c-4 36 -12 52 -43 81 l-39 36 18 79 c31
132 33 148 18 139 -9 -6 -10 -2 -5 16 7 22 6 22 -9 10 -11 -9 -20 -11 -27 -4
-6 6 3 16 29 27 l38 17 27 122 c37 167 55 156 -240 157 l-236 1 36 -44z"/>
<path d="M1020 1319 c0 -5 5 -7 10 -4 6 3 10 8 10 11 0 2 -4 4 -10 4 -5 0 -10
-5 -10 -11z"/>
<path d="M1300 1310 l-65 -7 62 -1 c34 -1 65 3 68 8 3 6 5 9 3 8 -2 -1 -32 -4
-68 -8z"/>
<path d="M1157 1263 c3 -7 -2 -15 -10 -19 -9 -3 -13 -14 -10 -27 3 -15 2 -18
-4 -10 -6 9 -9 2 -9 -20 0 -19 -8 -42 -19 -54 -43 -47 -45 -51 -30 -63 15 -13
12 -69 -10 -178 -2 -15 3 -32 15 -45 11 -11 20 -16 20 -11 0 5 9 10 21 11 16
2 20 -3 16 -16 -3 -13 0 -18 12 -16 23 4 35 -6 20 -16 -10 -6 -10 -9 -2 -9 23
0 23 19 1 35 -13 8 -22 18 -20 20 8 17 -2 25 -33 25 -19 0 -35 3 -35 6 0 3 7
34 16 68 15 57 15 109 0 147 -5 10 1 19 17 26 17 8 26 23 31 50 14 74 12 73
77 73 l59 0 -6 -27 c-3 -16 -7 -33 -9 -39 -2 -6 -33 -28 -68 -48 l-65 -36 15
-58 c9 -31 17 -58 19 -60 1 -2 16 4 34 13 32 16 32 16 25 -7 -10 -31 -24 -48
-41 -48 -16 0 -19 -16 -4 -25 6 -4 20 5 32 20 12 15 35 36 52 47 24 16 26 19
9 15 -31 -7 -52 19 -23 28 12 4 19 9 17 12 -3 2 -19 -3 -36 -12 -18 -9 -36
-13 -40 -10 -5 3 -11 -1 -14 -7 -2 -7 -6 2 -9 20 -4 27 -2 32 11 27 11 -3 11
-1 -3 9 -22 18 -14 51 10 42 8 -3 12 -2 9 3 -4 8 16 19 48 27 4 1 10 3 15 4 4
1 11 2 15 1 5 -1 6 3 3 8 -3 5 1 22 9 37 30 59 10 88 -61 88 -24 0 -44 3 -44
6 0 4 -6 7 -14 7 -8 0 -12 -6 -9 -14z"/>
<path d="M1170 1086 c0 -2 8 -10 18 -17 15 -13 16 -12 3 4 -13 16 -21 21 -21
13z"/>
<path d="M1285 950 c-4 -6 -22 -17 -41 -25 -19 -8 -34 -19 -34 -24 0 -6 17 0
38 12 43 25 68 47 53 47 -5 0 -13 -5 -16 -10z"/>
<path d="M1150 893 c0 -12 8 -27 18 -32 9 -6 13 -11 8 -11 -11 0 14 -30 25
-30 5 0 6 7 2 16 -5 14 -3 15 16 4 13 -6 25 -9 29 -6 3 3 -1 6 -9 6 -9 0 -5 8
10 19 14 11 34 17 45 15 15 -3 17 -1 8 8 -8 8 -21 7 -50 -6 -43 -19 -71 -13
-91 22 -9 15 -10 15 -11 -5z"/>
<path d="M1308 903 c7 -3 16 -2 19 1 4 3 -2 6 -13 5 -11 0 -14 -3 -6 -6z"/>
<path d="M1040 861 c0 -6 4 -13 10 -16 6 -3 7 1 4 9 -7 18 -14 21 -14 7z"/>
<path d="M815 780 c-3 -6 1 -7 9 -4 18 7 21 14 7 14 -6 0 -13 -4 -16 -10z"/>
<path d="M1300 780 c0 -7 -7 -9 -16 -6 -9 3 -12 2 -9 -5 4 -6 13 -8 20 -5 7 2
23 -2 34 -11 12 -8 25 -13 27 -10 3 3 -9 15 -25 27 -18 12 -31 16 -31 10z"/>
<path d="M397 723 c-2 -5 -7 -20 -10 -34 -6 -23 -4 -26 23 -26 27 0 29 3 23
26 -7 33 -12 41 -23 41 -5 0 -11 -3 -13 -7z m23 -33 c0 -5 -4 -10 -10 -10 -5
0 -10 5 -10 10 0 6 5 10 10 10 6 0 10 -4 10 -10z"/>
<path d="M450 697 c0 -29 3 -34 23 -34 19 0 23 5 22 31 0 24 -5 32 -22 34 -20
3 -23 -1 -23 -31z"/>
<path d="M510 695 c0 -32 3 -36 23 -33 32 4 31 62 -1 66 -19 3 -22 -1 -22 -33z
m30 15 c0 -5 -5 -10 -11 -10 -5 0 -7 5 -4 10 3 6 8 10 11 10 2 0 4 -4 4 -10z"/>
<path d="M667 724 c-4 -4 -7 -20 -7 -34 0 -22 5 -27 23 -27 19 0 23 5 22 31 0
30 -21 46 -38 30z"/>
<path d="M730 718 c0 -7 -3 -22 -6 -34 -5 -18 -1 -21 25 -21 17 0 31 1 31 2 0
1 -5 16 -11 34 -11 30 -39 44 -39 19z"/>
<path d="M791 711 c-15 -27 11 -60 35 -45 24 14 29 34 9 34 -9 0 -13 -4 -10
-10 3 -5 2 -10 -4 -10 -20 0 -22 22 -2 27 27 7 27 23 1 23 -10 0 -24 -8 -29
-19z"/>
<path d="M859 728 c-1 -2 -2 -18 -4 -35 -2 -29 0 -33 21 -33 13 0 24 5 24 11
0 6 -7 9 -15 5 -8 -3 -15 -1 -15 4 0 6 8 10 18 11 14 0 14 2 -3 9 -17 7 -17 9
-2 9 24 1 22 21 -3 21 -11 0 -20 -1 -21 -2z"/>
<path d="M326 712 c-3 -5 1 -9 9 -9 8 0 12 4 9 9 -3 4 -7 8 -9 8 -2 0 -6 -4
-9 -8z"/>
<path d="M1350 672 c0 -5 7 -15 15 -22 8 -7 15 -21 15 -31 0 -10 5 -21 10 -24
11 -7 13 41 2 65 -8 17 -42 26 -42 12z"/>
<path d="M336 652 c-3 -5 1 -9 9 -9 8 0 12 4 9 9 -3 4 -7 8 -9 8 -2 0 -6 -4
-9 -8z"/>
<path d="M1125 638 c4 -10 -11 -13 -57 -13 -43 0 -63 -4 -66 -14 -3 -8 0 -11
7 -7 7 5 11 -2 11 -18 0 -14 5 -26 11 -26 5 0 9 10 7 22 -2 18 2 23 20 24 17
1 22 -4 22 -22 0 -13 5 -24 10 -24 6 0 10 11 10 25 0 14 5 25 10 25 6 0 10
-11 10 -25 0 -44 18 -27 22 20 2 31 -1 45 -9 45 -7 0 -10 -6 -8 -12z"/>
<path d="M887 624 c-4 -4 -7 -20 -7 -36 0 -26 3 -29 28 -26 23 3 27 8 27 33
-1 22 -6 31 -21 33 -11 2 -23 0 -27 -4z m33 -38 c0 -3 -4 -8 -10 -11 -5 -3
-10 -1 -10 4 0 6 5 11 10 11 6 0 10 -2 10 -4z"/>
<path d="M963 623 c-7 -2 -13 -18 -13 -34 0 -22 5 -29 20 -29 25 0 27 37 3 43
-17 4 -17 5 0 6 9 0 17 6 17 11 0 11 -7 12 -27 3z m17 -43 c0 -5 -5 -10 -11
-10 -5 0 -7 5 -4 10 3 6 8 10 11 10 2 0 4 -4 4 -10z"/>
<path d="M1158 624 c-9 -18 -8 -64 2 -64 6 0 10 8 10 18 1 16 1 16 11 0 16
-28 25 -21 26 17 1 19 -3 35 -8 35 -5 0 -9 -8 -9 -17 0 -15 -1 -15 -13 2 -8
10 -16 14 -19 9z"/>
<path d="M1227 623 c-4 -3 -7 -19 -7 -35 0 -30 25 -39 48 -16 16 16 15 28 -3
28 -8 0 -15 -4 -15 -10 0 -5 -4 -10 -10 -10 -18 0 -10 22 10 27 11 3 20 9 20
14 0 10 -34 12 -43 2z"/>
</g>
</svg>
